REM DIRINDEX 1\3,1\4,1\5,1\6,1\2\7,1\2\8,1\2\9,1\10
REM DIRNAME cjc056,folder01,folder02,folder03,folder04,folder05,folder06,folder07,folder08,folder09
TITLE ""
FILE "2-52 Level 6-981-991.mp3" MP3
  TRACK 01 AUDIO
    TITLE "0:"
    INDEX 01 00:00:00
  TRACK 02 AUDIO
    TITLE "7:cjc056_3355"
    INDEX 01 00:00:07
  TRACK 03 AUDIO
    TITLE "0:"
    INDEX 01 00:01:24
  TRACK 04 AUDIO
    TITLE "8:cjc056_3356"
    INDEX 01 00:01:40
  TRACK 05 AUDIO
    TITLE "0:"
    INDEX 01 00:03:06
  TRACK 06 AUDIO
    TITLE "9:cjc056_3357"
    INDEX 01 00:03:12
  TRACK 07 AUDIO
    TITLE "0:"
    INDEX 01 00:06:63
  TRACK 08 AUDIO
    TITLE "7:cjc056_3358"
    INDEX 01 00:07:39
  TRACK 09 AUDIO
    TITLE "0:"
    INDEX 01 00:08:38
  TRACK 10 AUDIO
    TITLE "8:cjc056_3359"
    INDEX 01 00:08:56
  TRACK 11 AUDIO
    TITLE "0:"
    INDEX 01 00:10:33
  TRACK 12 AUDIO
    TITLE "9:cjc056_3360"
    INDEX 01 00:10:45
  TRACK 13 AUDIO
    TITLE "0:"
    INDEX 01 00:12:40
  TRACK 14 AUDIO
    TITLE "7:cjc056_3361"
    INDEX 01 00:13:18
  TRACK 15 AUDIO
    TITLE "0:"
    INDEX 01 00:14:37
  TRACK 16 AUDIO
    TITLE "8:cjc056_3362"
    INDEX 01 00:14:47
  TRACK 17 AUDIO
    TITLE "0:"
    INDEX 01 00:16:28
  TRACK 18 AUDIO
    TITLE "9:cjc056_3363"
    INDEX 01 00:16:40
  TRACK 19 AUDIO
    TITLE "0:"
    INDEX 01 00:18:72
  TRACK 20 AUDIO
    TITLE "7:cjc056_3364"
    INDEX 01 00:19:50
  TRACK 21 AUDIO
    TITLE "0:"
    INDEX 01 00:20:59
  TRACK 22 AUDIO
    TITLE "8:cjc056_3365"
    INDEX 01 00:20:73
  TRACK 23 AUDIO
    TITLE "0:"
    INDEX 01 00:22:25
  TRACK 24 AUDIO
    TITLE "9:cjc056_3366"
    INDEX 01 00:22:36
  TRACK 25 AUDIO
    TITLE "0:"
    INDEX 01 00:26:22
  TRACK 26 AUDIO
    TITLE "7:cjc056_3367"
    INDEX 01 00:27:00
  TRACK 27 AUDIO
    TITLE "0:"
    INDEX 01 00:28:15
  TRACK 28 AUDIO
    TITLE "8:cjc056_3368"
    INDEX 01 00:28:29
  TRACK 29 AUDIO
    TITLE "0:"
    INDEX 01 00:30:06
  TRACK 30 AUDIO
    TITLE "9:cjc056_3369"
    INDEX 01 00:30:20
  TRACK 31 AUDIO
    TITLE "0:"
    INDEX 01 00:32:66
  TRACK 32 AUDIO
    TITLE "7:cjc056_3370"
    INDEX 01 00:33:42
  TRACK 33 AUDIO
    TITLE "0:"
    INDEX 01 00:34:63
  TRACK 34 AUDIO
    TITLE "8:cjc056_3371"
    INDEX 01 00:35:02
  TRACK 35 AUDIO
    TITLE "0:"
    INDEX 01 00:36:52
  TRACK 36 AUDIO
    TITLE "9:cjc056_3372"
    INDEX 01 00:36:64
  TRACK 37 AUDIO
    TITLE "0:"
    INDEX 01 00:39:58
  TRACK 38 AUDIO
    TITLE "7:cjc056_3373"
    INDEX 01 00:40:34
  TRACK 39 AUDIO
    TITLE "0:"
    INDEX 01 00:41:47
  TRACK 40 AUDIO
    TITLE "8:cjc056_3374"
    INDEX 01 00:41:63
  TRACK 41 AUDIO
    TITLE "0:"
    INDEX 01 00:43:40
  TRACK 42 AUDIO
    TITLE "9:cjc056_3375"
    INDEX 01 00:43:54
  TRACK 43 AUDIO
    TITLE "0:"
    INDEX 01 00:47:11
  TRACK 44 AUDIO
    TITLE "7:cjc056_3376"
    INDEX 01 00:47:62
  TRACK 45 AUDIO
    TITLE "0:"
    INDEX 01 00:49:02
  TRACK 46 AUDIO
    TITLE "8:cjc056_3377"
    INDEX 01 00:49:18
  TRACK 47 AUDIO
    TITLE "0:"
    INDEX 01 00:50:29
  TRACK 48 AUDIO
    TITLE "9:cjc056_3378"
    INDEX 01 00:50:42
  TRACK 49 AUDIO
    TITLE "0:"
    INDEX 01 00:53:13
  TRACK 50 AUDIO
    TITLE "7:cjc056_3379"
    INDEX 01 00:53:66
  TRACK 51 AUDIO
    TITLE "0:"
    INDEX 01 00:54:72
  TRACK 52 AUDIO
    TITLE "8:cjc056_3380"
    INDEX 01 00:55:12
  TRACK 53 AUDIO
    TITLE "0:"
    INDEX 01 00:57:56
  TRACK 54 AUDIO
    TITLE "9:cjc056_3381"
    INDEX 01 00:57:70
  TRACK 55 AUDIO
    TITLE "0:"
    INDEX 01 01:01:03
  TRACK 56 AUDIO
    TITLE "7:cjc056_3382"
    INDEX 01 01:01:54
  TRACK 57 AUDIO
    TITLE "0:"
    INDEX 01 01:02:54
  TRACK 58 AUDIO
    TITLE "8:cjc056_3383"
    INDEX 01 01:02:67
  TRACK 59 AUDIO
    TITLE "0:"
    INDEX 01 01:05:24
  TRACK 60 AUDIO
    TITLE "9:cjc056_3384"
    INDEX 01 01:05:34
  TRACK 61 AUDIO
    TITLE "0:"
    INDEX 01 01:08:25
  TRACK 62 AUDIO
    TITLE "7:cjc056_3385"
    INDEX 01 01:09:03
  TRACK 63 AUDIO
    TITLE "0:"
    INDEX 01 01:10:08
  TRACK 64 AUDIO
    TITLE "8:cjc056_3386"
    INDEX 01 01:10:22
  TRACK 65 AUDIO
    TITLE "0:"
    INDEX 01 01:12:71
  TRACK 66 AUDIO
    TITLE "9:cjc056_3387"
    INDEX 01 01:13:10
  TRACK 67 AUDIO
    TITLE "0:"
    INDEX 01 01:15:52
